<svg width="11" height="14" viewBox="0 0 11 14" fill="none" xmlns="http://www.w3.org/2000/svg">
<path d="M5.14645 10.3536C5.34171 10.5488 5.65829 10.5488 5.85355 10.3536L9.03553 7.17157C9.2308 6.97631 9.2308 6.65973 9.03553 6.46447C8.84027 6.2692 8.52369 6.2692 8.32843 6.46447L5.5 9.29289L2.67157 6.46447C2.47631 6.2692 2.15973 6.2692 1.96447 6.46447C1.7692 6.65973 1.7692 6.97631 1.96447 7.17157L5.14645 10.3536ZM5 0L5 10H6L6 0L5 0Z" fill="white"/>
<path d="M10.5 13.5H11V12.5H10.5V13.5ZM0 13.5H10.5V12.5H0V13.5Z" fill="white"/>
<line x1="10.5" y1="9" x2="10.5" y2="13" stroke="white"/>
<line x1="0.5" y1="9" x2="0.5" y2="13" stroke="white"/>
</svg>
